<?xml version="1.0" encoding="utf-8" standalone="no"?>
<!DOCTYPE svg PUBLIC "-//W3C//DTD SVG 1.1//EN"
  "http://www.w3.org/Graphics/SVG/1.1/DTD/svg11.dtd">
<!-- Created with matplotlib (http://matplotlib.org/) -->
<svg height="576pt" version="1.1" viewBox="0 0 864 576" width="864pt" xmlns="http://www.w3.org/2000/svg" xmlns:xlink="http://www.w3.org/1999/xlink">
 <defs>
  <style type="text/css">
*{stroke-linecap:butt;stroke-linejoin:round;}
  </style>
 </defs>
 <g id="figure_1">
  <g id="patch_1">
   <path d="
M0 576
L864 576
L864 0
L0 0
z
" style="fill:#ffffff;"/>
  </g>
  <g id="axes_1">
   <g id="patch_2">
    <path d="
M108 267.055
L777.6 267.055
L777.6 57.6
L108 57.6
z
" style="fill:#ffffff;"/>
   </g>
   <g id="line2d_1">
    <path clip-path="url(#pfc6a5747e2)" d="
M108 161.77
L114.696 165.711
L121.392 169.892
L128.088 173.135
L134.784 176.291
L141.48 178.276
L148.176 180.598
L154.872 182.481
L161.568 185.511
L168.264 188.273
L174.96 191.926
L181.656 194.985
L188.352 196.714
L195.048 199.88
L201.744 202.031
L208.44 204.402
L215.136 205.696
L221.832 206.255
L228.528 209.85
L235.224 211.2
L241.92 211.2
L248.616 212.173
L255.312 212.565
L262.008 214.741
L268.704 217.159
L275.4 218.182
L282.096 219.006
L288.792 221.514
L295.488 221.514
L302.184 222.575
L308.88 223.647
L315.576 225.601
L322.272 226.923
L328.968 236.422
L335.664 241.143
L342.36 241.91
L349.056 241.91
L355.752 241.91
L362.448 241.91
L369.144 241.91
L375.84 241.91
L382.536 241.91
L389.232 241.91
L395.928 241.91
L402.624 241.91
L409.32 242.167
L416.016 242.167
L422.712 244.248
L429.408 244.248
L436.104 244.248
L442.8 249.391
L449.496 253.382
L456.192 253.382
L462.888 253.968
L469.584 255.751
L476.28 255.751
L482.976 258.502
L489.672 258.502
L496.368 258.502
L503.064 258.502
L509.76 258.814
L516.456 258.814
L523.152 258.814
L529.848 258.814
L536.544 258.814
L543.24 258.814
L549.936 258.814
L556.632 258.814
L563.328 258.814
L570.024 258.814
L576.72 258.814
L583.416 258.814
L590.112 258.814
L596.808 258.814
L603.504 258.814
L610.2 258.814
L616.896 258.814
L623.592 258.814
L630.288 258.814
L636.984 258.814
L643.68 258.814
L650.376 258.814
L657.072 258.814
L663.768 258.814
L670.464 258.814
L677.16 258.814
L683.856 258.814
L690.552 258.814
L697.248 258.814
L703.944 258.814
L710.64 258.814
L717.336 258.814
L724.032 258.814
L730.728 258.814
L737.424 258.814
L744.12 258.814
L750.816 258.814
L757.512 258.814
L764.208 258.814
L770.904 258.814
L777.6 258.814" style="fill:none;stroke:#0000ff;stroke-linecap:square;"/>
   </g>
   <g id="line2d_2">
    <path clip-path="url(#pfc6a5747e2)" d="
M108 78.9231
L114.696 104.472
L121.392 118.754
L128.088 129.641
L134.784 147.976
L141.48 164.152
L148.176 170.038
L154.872 173.433
L161.568 176.747
L168.264 178.43
L174.96 179.821
L181.656 181.067
L188.352 182.166
L195.048 182.797
L201.744 183.431
L208.44 183.909
L215.136 183.909
L221.832 183.909
L228.528 183.909
L235.224 183.909
L241.92 183.909
L248.616 183.909
L255.312 183.909
L262.008 183.909
L268.704 183.909
L275.4 183.909
L282.096 183.909
L288.792 183.909
L295.488 183.909
L302.184 183.909
L308.88 183.909
L315.576 183.909
L322.272 183.909
L328.968 183.909
L335.664 183.909
L342.36 183.909
L349.056 183.909
L355.752 183.909
L362.448 183.909
L369.144 183.909
L375.84 183.909
L382.536 183.909
L389.232 183.909
L395.928 183.909
L402.624 183.909
L409.32 183.909
L416.016 183.909
L422.712 183.909
L429.408 183.909
L436.104 183.909
L442.8 183.909
L449.496 183.909
L456.192 183.909
L462.888 183.909
L469.584 183.909
L476.28 183.909
L482.976 183.909
L489.672 183.909
L496.368 183.909
L503.064 183.909
L509.76 183.909
L516.456 183.909
L523.152 183.909
L529.848 183.909
L536.544 183.909
L543.24 183.909
L549.936 183.909
L556.632 183.909
L563.328 183.909
L570.024 183.909
L576.72 183.909
L583.416 183.909
L590.112 183.909
L596.808 183.909
L603.504 183.909
L610.2 183.909
L616.896 183.909
L623.592 183.909
L630.288 183.909
L636.984 183.909
L643.68 183.909
L650.376 183.909
L657.072 183.909
L663.768 183.909
L670.464 183.909
L677.16 183.909
L683.856 183.909
L690.552 183.909
L697.248 183.909
L703.944 183.909
L710.64 183.909
L717.336 183.909
L724.032 183.909
L730.728 183.909
L737.424 183.909
L744.12 183.909
L750.816 183.909
L757.512 183.909
L764.208 183.909
L770.904 183.909
L777.6 183.909" style="fill:none;stroke:#ff0000;stroke-linecap:square;"/>
   </g>
   <g id="line2d_3">
    <path clip-path="url(#pfc6a5747e2)" d="
M108 153.365
L114.696 147.959
L121.392 158.676
L128.088 161.143
L134.784 168.578
L141.48 172.986
L148.176 175.332
L154.872 178.253
L161.568 180.328
L168.264 180.933
L174.96 183.497
L181.656 184.274
L188.352 187.184
L195.048 186.13
L201.744 189.434
L208.44 184.328
L215.136 184.286
L221.832 185.011
L228.528 184.805
L235.224 185.88
L241.92 184.913
L248.616 184.981
L255.312 184.765
L262.008 184.782
L268.704 184.526
L275.4 185.167
L282.096 185.184
L288.792 185.674
L295.488 185.298
L302.184 184.68
L308.88 186.25
L315.576 186.41
L322.272 184.769
L328.968 184.434
L335.664 185.053
L342.36 184.489
L349.056 185.069
L355.752 185.069
L362.448 185.069
L369.144 185.069
L375.84 185.069
L382.536 185.069
L389.232 185.069
L395.928 185.069
L402.624 185.069
L409.32 185.074
L416.016 185.074
L422.712 184.512
L429.408 185.116
L436.104 185.116
L442.8 184.564
L449.496 187.382
L456.192 185.993
L462.888 185.31
L469.584 185.346
L476.28 186.782
L482.976 184.655
L489.672 185.401
L496.368 185.401
L503.064 186.892
L509.76 187.654
L516.456 185.407
L523.152 185.407
L529.848 185.407
L536.544 186.905
L543.24 185.407
L549.936 188.403
L556.632 187.654
L563.328 185.407
L570.024 186.156
L576.72 188.403
L583.416 185.407
L590.112 188.403
L596.808 185.407
L603.504 185.407
L610.2 187.654
L616.896 185.407
L623.592 185.407
L630.288 185.407
L636.984 185.407
L643.68 185.407
L650.376 193.646
L657.072 187.654
L663.768 185.407
L670.464 185.407
L677.16 185.407
L683.856 187.654
L690.552 185.407
L697.248 185.407
L703.944 185.407
L710.64 185.407
L717.336 185.407
L724.032 185.407
L730.728 186.156
L737.424 185.407
L744.12 185.407
L750.816 185.407
L757.512 185.407
L764.208 187.654
L770.904 185.407
L777.6 186.156" style="fill:none;stroke:#008000;stroke-linecap:square;"/>
   </g>
   <g id="patch_3">
    <path d="
M108 267.055
L777.6 267.055" style="fill:none;stroke:#000000;stroke-linecap:square;stroke-linejoin:miter;"/>
   </g>
   <g id="patch_4">
    <path d="
M108 57.6
L777.6 57.6" style="fill:none;stroke:#000000;stroke-linecap:square;stroke-linejoin:miter;"/>
   </g>
   <g id="patch_5">
    <path d="
M108 267.055
L108 57.6" style="fill:none;stroke:#000000;stroke-linecap:square;stroke-linejoin:miter;"/>
   </g>
   <g id="patch_6">
    <path d="
M777.6 267.055
L777.6 57.6" style="fill:none;stroke:#000000;stroke-linecap:square;stroke-linejoin:miter;"/>
   </g>
   <g id="matplotlib.axis_1">
    <g id="xtick_1">
     <g id="line2d_4">
      <defs>
       <path d="
M0 0
L0 -4" id="mc7db9fdffb" style="stroke:#000000;stroke-width:0.5;"/>
      </defs>
      <g>
       <use style="stroke:#000000;stroke-width:0.5;" x="108.0" xlink:href="#mc7db9fdffb" y="267.054545455"/>
      </g>
     </g>
     <g id="line2d_5">
      <defs>
       <path d="
M0 0
L0 4" id="m5a7d422ac3" style="stroke:#000000;stroke-width:0.5;"/>
      </defs>
      <g>
       <use style="stroke:#000000;stroke-width:0.5;" x="108.0" xlink:href="#m5a7d422ac3" y="57.6"/>
      </g>
     </g>
     <g id="text_1">
      <!-- 0 -->
      <defs>
       <path d="
M31.7812 66.4062
Q24.1719 66.4062 20.3281 58.9062
Q16.5 51.4219 16.5 36.375
Q16.5 21.3906 20.3281 13.8906
Q24.1719 6.39062 31.7812 6.39062
Q39.4531 6.39062 43.2812 13.8906
Q47.125 21.3906 47.125 36.375
Q47.125 51.4219 43.2812 58.9062
Q39.4531 66.4062 31.7812 66.4062
M31.7812 74.2188
Q44.0469 74.2188 50.5156 64.5156
Q56.9844 54.8281 56.9844 36.375
Q56.9844 17.9688 50.5156 8.26562
Q44.0469 -1.42188 31.7812 -1.42188
Q19.5312 -1.42188 13.0625 8.26562
Q6.59375 17.9688 6.59375 36.375
Q6.59375 54.8281 13.0625 64.5156
Q19.5312 74.2188 31.7812 74.2188" id="BitstreamVeraSans-Roman-30"/>
      </defs>
      <g transform="translate(104.9765625 280.172670455)scale(0.12 -0.12)">
       <use xlink:href="#BitstreamVeraSans-Roman-30"/>
      </g>
     </g>
    </g>
    <g id="xtick_2">
     <g id="line2d_6">
      <g>
       <use style="stroke:#000000;stroke-width:0.5;" x="241.92" xlink:href="#mc7db9fdffb" y="267.054545455"/>
      </g>
     </g>
     <g id="line2d_7">
      <g>
       <use style="stroke:#000000;stroke-width:0.5;" x="241.92" xlink:href="#m5a7d422ac3" y="57.6"/>
      </g>
     </g>
     <g id="text_2">
      <!-- 200 -->
      <defs>
       <path d="
M19.1875 8.29688
L53.6094 8.29688
L53.6094 0
L7.32812 0
L7.32812 8.29688
Q12.9375 14.1094 22.625 23.8906
Q32.3281 33.6875 34.8125 36.5312
Q39.5469 41.8438 41.4219 45.5312
Q43.3125 49.2188 43.3125 52.7812
Q43.3125 58.5938 39.2344 62.25
Q35.1562 65.9219 28.6094 65.9219
Q23.9688 65.9219 18.8125 64.3125
Q13.6719 62.7031 7.8125 59.4219
L7.8125 69.3906
Q13.7656 71.7812 18.9375 73
Q24.125 74.2188 28.4219 74.2188
Q39.75 74.2188 46.4844 68.5469
Q53.2188 62.8906 53.2188 53.4219
Q53.2188 48.9219 51.5312 44.8906
Q49.8594 40.875 45.4062 35.4062
Q44.1875 33.9844 37.6406 27.2188
Q31.1094 20.4531 19.1875 8.29688" id="BitstreamVeraSans-Roman-32"/>
      </defs>
      <g transform="translate(231.305625 280.172670455)scale(0.12 -0.12)">
       <use xlink:href="#BitstreamVeraSans-Roman-32"/>
       <use x="63.623046875" xlink:href="#BitstreamVeraSans-Roman-30"/>
       <use x="127.24609375" xlink:href="#BitstreamVeraSans-Roman-30"/>
      </g>
     </g>
    </g>
    <g id="xtick_3">
     <g id="line2d_8">
      <g>
       <use style="stroke:#000000;stroke-width:0.5;" x="375.84" xlink:href="#mc7db9fdffb" y="267.054545455"/>
      </g>
     </g>
     <g id="line2d_9">
      <g>
       <use style="stroke:#000000;stroke-width:0.5;" x="375.84" xlink:href="#m5a7d422ac3" y="57.6"/>
      </g>
     </g>
     <g id="text_3">
      <!-- 400 -->
      <defs>
       <path d="
M37.7969 64.3125
L12.8906 25.3906
L37.7969 25.3906
z

M35.2031 72.9062
L47.6094 72.9062
L47.6094 25.3906
L58.0156 25.3906
L58.0156 17.1875
L47.6094 17.1875
L47.6094 0
L37.7969 0
L37.7969 17.1875
L4.89062 17.1875
L4.89062 26.7031
z
" id="BitstreamVeraSans-Roman-34"/>
      </defs>
      <g transform="translate(365.079375 280.172670455)scale(0.12 -0.12)">
       <use xlink:href="#BitstreamVeraSans-Roman-34"/>
       <use x="63.623046875" xlink:href="#BitstreamVeraSans-Roman-30"/>
       <use x="127.24609375" xlink:href="#BitstreamVeraSans-Roman-30"/>
      </g>
     </g>
    </g>
    <g id="xtick_4">
     <g id="line2d_10">
      <g>
       <use style="stroke:#000000;stroke-width:0.5;" x="509.76" xlink:href="#mc7db9fdffb" y="267.054545455"/>
      </g>
     </g>
     <g id="line2d_11">
      <g>
       <use style="stroke:#000000;stroke-width:0.5;" x="509.76" xlink:href="#m5a7d422ac3" y="57.6"/>
      </g>
     </g>
     <g id="text_4">
      <!-- 600 -->
      <defs>
       <path d="
M33.0156 40.375
Q26.375 40.375 22.4844 35.8281
Q18.6094 31.2969 18.6094 23.3906
Q18.6094 15.5312 22.4844 10.9531
Q26.375 6.39062 33.0156 6.39062
Q39.6562 6.39062 43.5312 10.9531
Q47.4062 15.5312 47.4062 23.3906
Q47.4062 31.2969 43.5312 35.8281
Q39.6562 40.375 33.0156 40.375
M52.5938 71.2969
L52.5938 62.3125
Q48.875 64.0625 45.0938 64.9844
Q41.3125 65.9219 37.5938 65.9219
Q27.8281 65.9219 22.6719 59.3281
Q17.5312 52.7344 16.7969 39.4062
Q19.6719 43.6562 24.0156 45.9219
Q28.375 48.1875 33.5938 48.1875
Q44.5781 48.1875 50.9531 41.5156
Q57.3281 34.8594 57.3281 23.3906
Q57.3281 12.1562 50.6875 5.35938
Q44.0469 -1.42188 33.0156 -1.42188
Q20.3594 -1.42188 13.6719 8.26562
Q6.98438 17.9688 6.98438 36.375
Q6.98438 53.6562 15.1875 63.9375
Q23.3906 74.2188 37.2031 74.2188
Q40.9219 74.2188 44.7031 73.4844
Q48.4844 72.75 52.5938 71.2969" id="BitstreamVeraSans-Roman-36"/>
      </defs>
      <g transform="translate(499.125 280.172670455)scale(0.12 -0.12)">
       <use xlink:href="#BitstreamVeraSans-Roman-36"/>
       <use x="63.623046875" xlink:href="#BitstreamVeraSans-Roman-30"/>
       <use x="127.24609375" xlink:href="#BitstreamVeraSans-Roman-30"/>
      </g>
     </g>
    </g>
    <g id="xtick_5">
     <g id="line2d_12">
      <g>
       <use style="stroke:#000000;stroke-width:0.5;" x="643.68" xlink:href="#mc7db9fdffb" y="267.054545455"/>
      </g>
     </g>
     <g id="line2d_13">
      <g>
       <use style="stroke:#000000;stroke-width:0.5;" x="643.68" xlink:href="#m5a7d422ac3" y="57.6"/>
      </g>
     </g>
     <g id="text_5">
      <!-- 800 -->
      <defs>
       <path d="
M31.7812 34.625
Q24.75 34.625 20.7188 30.8594
Q16.7031 27.0938 16.7031 20.5156
Q16.7031 13.9219 20.7188 10.1562
Q24.75 6.39062 31.7812 6.39062
Q38.8125 6.39062 42.8594 10.1719
Q46.9219 13.9688 46.9219 20.5156
Q46.9219 27.0938 42.8906 30.8594
Q38.875 34.625 31.7812 34.625
M21.9219 38.8125
Q15.5781 40.375 12.0312 44.7188
Q8.5 49.0781 8.5 55.3281
Q8.5 64.0625 14.7188 69.1406
Q20.9531 74.2188 31.7812 74.2188
Q42.6719 74.2188 48.875 69.1406
Q55.0781 64.0625 55.0781 55.3281
Q55.0781 49.0781 51.5312 44.7188
Q48 40.375 41.7031 38.8125
Q48.8281 37.1562 52.7969 32.3125
Q56.7812 27.4844 56.7812 20.5156
Q56.7812 9.90625 50.3125 4.23438
Q43.8438 -1.42188 31.7812 -1.42188
Q19.7344 -1.42188 13.25 4.23438
Q6.78125 9.90625 6.78125 20.5156
Q6.78125 27.4844 10.7812 32.3125
Q14.7969 37.1562 21.9219 38.8125
M18.3125 54.3906
Q18.3125 48.7344 21.8438 45.5625
Q25.3906 42.3906 31.7812 42.3906
Q38.1406 42.3906 41.7188 45.5625
Q45.3125 48.7344 45.3125 54.3906
Q45.3125 60.0625 41.7188 63.2344
Q38.1406 66.4062 31.7812 66.4062
Q25.3906 66.4062 21.8438 63.2344
Q18.3125 60.0625 18.3125 54.3906" id="BitstreamVeraSans-Roman-38"/>
      </defs>
      <g transform="translate(633.0328125 280.172670455)scale(0.12 -0.12)">
       <use xlink:href="#BitstreamVeraSans-Roman-38"/>
       <use x="63.623046875" xlink:href="#BitstreamVeraSans-Roman-30"/>
       <use x="127.24609375" xlink:href="#BitstreamVeraSans-Roman-30"/>
      </g>
     </g>
    </g>
    <g id="xtick_6">
     <g id="line2d_14">
      <g>
       <use style="stroke:#000000;stroke-width:0.5;" x="777.6" xlink:href="#mc7db9fdffb" y="267.054545455"/>
      </g>
     </g>
     <g id="line2d_15">
      <g>
       <use style="stroke:#000000;stroke-width:0.5;" x="777.6" xlink:href="#m5a7d422ac3" y="57.6"/>
      </g>
     </g>
     <g id="text_6">
      <!-- 1000 -->
      <defs>
       <path d="
M12.4062 8.29688
L28.5156 8.29688
L28.5156 63.9219
L10.9844 60.4062
L10.9844 69.3906
L28.4219 72.9062
L38.2812 72.9062
L38.2812 8.29688
L54.3906 8.29688
L54.3906 0
L12.4062 0
z
" id="BitstreamVeraSans-Roman-31"/>
      </defs>
      <g transform="translate(763.3875 280.172670455)scale(0.12 -0.12)">
       <use xlink:href="#BitstreamVeraSans-Roman-31"/>
       <use x="63.623046875" xlink:href="#BitstreamVeraSans-Roman-30"/>
       <use x="127.24609375" xlink:href="#BitstreamVeraSans-Roman-30"/>
       <use x="190.869140625" xlink:href="#BitstreamVeraSans-Roman-30"/>
      </g>
     </g>
    </g>
    <g id="text_7">
     <!-- Generation -->
     <defs>
      <path d="
M34.2812 27.4844
Q23.3906 27.4844 19.1875 25
Q14.9844 22.5156 14.9844 16.5
Q14.9844 11.7188 18.1406 8.90625
Q21.2969 6.10938 26.7031 6.10938
Q34.1875 6.10938 38.7031 11.4062
Q43.2188 16.7031 43.2188 25.4844
L43.2188 27.4844
z

M52.2031 31.2031
L52.2031 0
L43.2188 0
L43.2188 8.29688
Q40.1406 3.32812 35.5469 0.953125
Q30.9531 -1.42188 24.3125 -1.42188
Q15.9219 -1.42188 10.9531 3.29688
Q6 8.01562 6 15.9219
Q6 25.1406 12.1719 29.8281
Q18.3594 34.5156 30.6094 34.5156
L43.2188 34.5156
L43.2188 35.4062
Q43.2188 41.6094 39.1406 45
Q35.0625 48.3906 27.6875 48.3906
Q23 48.3906 18.5469 47.2656
Q14.1094 46.1406 10.0156 43.8906
L10.0156 52.2031
Q14.9375 54.1094 19.5781 55.0469
Q24.2188 56 28.6094 56
Q40.4844 56 46.3438 49.8438
Q52.2031 43.7031 52.2031 31.2031" id="BitstreamVeraSans-Roman-61"/>
      <path d="
M56.2031 29.5938
L56.2031 25.2031
L14.8906 25.2031
Q15.4844 15.9219 20.4844 11.0625
Q25.4844 6.20312 34.4219 6.20312
Q39.5938 6.20312 44.4531 7.46875
Q49.3125 8.73438 54.1094 11.2812
L54.1094 2.78125
Q49.2656 0.734375 44.1875 -0.34375
Q39.1094 -1.42188 33.8906 -1.42188
Q20.7969 -1.42188 13.1562 6.1875
Q5.51562 13.8125 5.51562 26.8125
Q5.51562 40.2344 12.7656 48.1094
Q20.0156 56 32.3281 56
Q43.3594 56 49.7812 48.8906
Q56.2031 41.7969 56.2031 29.5938
M47.2188 32.2344
Q47.125 39.5938 43.0938 43.9844
Q39.0625 48.3906 32.4219 48.3906
Q24.9062 48.3906 20.3906 44.1406
Q15.875 39.8906 15.1875 32.1719
z
" id="BitstreamVeraSans-Roman-65"/>
      <path d="
M30.6094 48.3906
Q23.3906 48.3906 19.1875 42.75
Q14.9844 37.1094 14.9844 27.2969
Q14.9844 17.4844 19.1562 11.8438
Q23.3438 6.20312 30.6094 6.20312
Q37.7969 6.20312 41.9844 11.8594
Q46.1875 17.5312 46.1875 27.2969
Q46.1875 37.0156 41.9844 42.7031
Q37.7969 48.3906 30.6094 48.3906
M30.6094 56
Q42.3281 56 49.0156 48.375
Q55.7188 40.7656 55.7188 27.2969
Q55.7188 13.875 49.0156 6.21875
Q42.3281 -1.42188 30.6094 -1.42188
Q18.8438 -1.42188 12.1719 6.21875
Q5.51562 13.875 5.51562 27.2969
Q5.51562 40.7656 12.1719 48.375
Q18.8438 56 30.6094 56" id="BitstreamVeraSans-Roman-6f"/>
      <path d="
M54.8906 33.0156
L54.8906 0
L45.9062 0
L45.9062 32.7188
Q45.9062 40.4844 42.875 44.3281
Q39.8438 48.1875 33.7969 48.1875
Q26.5156 48.1875 22.3125 43.5469
Q18.1094 38.9219 18.1094 30.9062
L18.1094 0
L9.07812 0
L9.07812 54.6875
L18.1094 54.6875
L18.1094 46.1875
Q21.3438 51.125 25.7031 53.5625
Q30.0781 56 35.7969 56
Q45.2188 56 50.0469 50.1719
Q54.8906 44.3438 54.8906 33.0156" id="BitstreamVeraSans-Roman-6e"/>
      <path d="
M9.42188 54.6875
L18.4062 54.6875
L18.4062 0
L9.42188 0
z

M9.42188 75.9844
L18.4062 75.9844
L18.4062 64.5938
L9.42188 64.5938
z
" id="BitstreamVeraSans-Roman-69"/>
      <path d="
M41.1094 46.2969
Q39.5938 47.1719 37.8125 47.5781
Q36.0312 48 33.8906 48
Q26.2656 48 22.1875 43.0469
Q18.1094 38.0938 18.1094 28.8125
L18.1094 0
L9.07812 0
L9.07812 54.6875
L18.1094 54.6875
L18.1094 46.1875
Q20.9531 51.1719 25.4844 53.5781
Q30.0312 56 36.5312 56
Q37.4531 56 38.5781 55.875
Q39.7031 55.7656 41.0625 55.5156
z
" id="BitstreamVeraSans-Roman-72"/>
      <path d="
M59.5156 10.4062
L59.5156 29.9844
L43.4062 29.9844
L43.4062 38.0938
L69.2812 38.0938
L69.2812 6.78125
Q63.5781 2.73438 56.6875 0.65625
Q49.8125 -1.42188 42 -1.42188
Q24.9062 -1.42188 15.25 8.5625
Q5.60938 18.5625 5.60938 36.375
Q5.60938 54.25 15.25 64.2344
Q24.9062 74.2188 42 74.2188
Q49.125 74.2188 55.5469 72.4531
Q61.9688 70.7031 67.3906 67.2812
L67.3906 56.7812
Q61.9219 61.4219 55.7656 63.7656
Q49.6094 66.1094 42.8281 66.1094
Q29.4375 66.1094 22.7188 58.6406
Q16.0156 51.1719 16.0156 36.375
Q16.0156 21.625 22.7188 14.1562
Q29.4375 6.6875 42.8281 6.6875
Q48.0469 6.6875 52.1406 7.59375
Q56.25 8.5 59.5156 10.4062" id="BitstreamVeraSans-Roman-47"/>
      <path d="
M18.3125 70.2188
L18.3125 54.6875
L36.8125 54.6875
L36.8125 47.7031
L18.3125 47.7031
L18.3125 18.0156
Q18.3125 11.3281 20.1406 9.42188
Q21.9688 7.51562 27.5938 7.51562
L36.8125 7.51562
L36.8125 0
L27.5938 0
Q17.1875 0 13.2344 3.875
Q9.28125 7.76562 9.28125 18.0156
L9.28125 47.7031
L2.6875 47.7031
L2.6875 54.6875
L9.28125 54.6875
L9.28125 70.2188
z
" id="BitstreamVeraSans-Roman-74"/>
     </defs>
     <g transform="translate(399.29875 299.825795455)scale(0.16 -0.16)">
      <use xlink:href="#BitstreamVeraSans-Roman-47"/>
      <use x="77.490234375" xlink:href="#BitstreamVeraSans-Roman-65"/>
      <use x="139.013671875" xlink:href="#BitstreamVeraSans-Roman-6e"/>
      <use x="202.392578125" xlink:href="#BitstreamVeraSans-Roman-65"/>
      <use x="263.916015625" xlink:href="#BitstreamVeraSans-Roman-72"/>
      <use x="305.029296875" xlink:href="#BitstreamVeraSans-Roman-61"/>
      <use x="366.30859375" xlink:href="#BitstreamVeraSans-Roman-74"/>
      <use x="405.517578125" xlink:href="#BitstreamVeraSans-Roman-69"/>
      <use x="433.30078125" xlink:href="#BitstreamVeraSans-Roman-6f"/>
      <use x="494.482421875" xlink:href="#BitstreamVeraSans-Roman-6e"/>
     </g>
    </g>
   </g>
   <g id="matplotlib.axis_2">
    <g id="ytick_1">
     <g id="line2d_16">
      <defs>
       <path d="
M0 0
L4 0" id="md7965d1ba0" style="stroke:#000000;stroke-width:0.5;"/>
      </defs>
      <g>
       <use style="stroke:#000000;stroke-width:0.5;" x="108.0" xlink:href="#md7965d1ba0" y="267.054545455"/>
      </g>
     </g>
     <g id="line2d_17">
      <defs>
       <path d="
M0 0
L-4 0" id="md9a1c1a7cd" style="stroke:#000000;stroke-width:0.5;"/>
      </defs>
      <g>
       <use style="stroke:#000000;stroke-width:0.5;" x="777.6" xlink:href="#md9a1c1a7cd" y="267.054545455"/>
      </g>
     </g>
     <g id="text_8">
      <!-- 10 -->
      <g transform="translate(90.845 270.365795455)scale(0.12 -0.12)">
       <use xlink:href="#BitstreamVeraSans-Roman-31"/>
       <use x="63.623046875" xlink:href="#BitstreamVeraSans-Roman-30"/>
      </g>
     </g>
    </g>
    <g id="ytick_2">
     <g id="line2d_18">
      <g>
       <use style="stroke:#000000;stroke-width:0.5;" x="108.0" xlink:href="#md7965d1ba0" y="232.145454545"/>
      </g>
     </g>
     <g id="line2d_19">
      <g>
       <use style="stroke:#000000;stroke-width:0.5;" x="777.6" xlink:href="#md9a1c1a7cd" y="232.145454545"/>
      </g>
     </g>
     <g id="text_9">
      <!-- 15 -->
      <defs>
       <path d="
M10.7969 72.9062
L49.5156 72.9062
L49.5156 64.5938
L19.8281 64.5938
L19.8281 46.7344
Q21.9688 47.4688 24.1094 47.8281
Q26.2656 48.1875 28.4219 48.1875
Q40.625 48.1875 47.75 41.5
Q54.8906 34.8125 54.8906 23.3906
Q54.8906 11.625 47.5625 5.09375
Q40.2344 -1.42188 26.9062 -1.42188
Q22.3125 -1.42188 17.5469 -0.640625
Q12.7969 0.140625 7.71875 1.70312
L7.71875 11.625
Q12.1094 9.23438 16.7969 8.0625
Q21.4844 6.89062 26.7031 6.89062
Q35.1562 6.89062 40.0781 11.3281
Q45.0156 15.7656 45.0156 23.3906
Q45.0156 31 40.0781 35.4375
Q35.1562 39.8906 26.7031 39.8906
Q22.75 39.8906 18.8125 39.0156
Q14.8906 38.1406 10.7969 36.2812
z
" id="BitstreamVeraSans-Roman-35"/>
      </defs>
      <g transform="translate(91.09625 235.456704545)scale(0.12 -0.12)">
       <use xlink:href="#BitstreamVeraSans-Roman-31"/>
       <use x="63.623046875" xlink:href="#BitstreamVeraSans-Roman-35"/>
      </g>
     </g>
    </g>
    <g id="ytick_3">
     <g id="line2d_20">
      <g>
       <use style="stroke:#000000;stroke-width:0.5;" x="108.0" xlink:href="#md7965d1ba0" y="197.236363636"/>
      </g>
     </g>
     <g id="line2d_21">
      <g>
       <use style="stroke:#000000;stroke-width:0.5;" x="777.6" xlink:href="#md9a1c1a7cd" y="197.236363636"/>
      </g>
     </g>
     <g id="text_10">
      <!-- 20 -->
      <g transform="translate(90.40625 200.547613636)scale(0.12 -0.12)">
       <use xlink:href="#BitstreamVeraSans-Roman-32"/>
       <use x="63.623046875" xlink:href="#BitstreamVeraSans-Roman-30"/>
      </g>
     </g>
    </g>
    <g id="ytick_4">
     <g id="line2d_22">
      <g>
       <use style="stroke:#000000;stroke-width:0.5;" x="108.0" xlink:href="#md7965d1ba0" y="162.327272727"/>
      </g>
     </g>
     <g id="line2d_23">
      <g>
       <use style="stroke:#000000;stroke-width:0.5;" x="777.6" xlink:href="#md9a1c1a7cd" y="162.327272727"/>
      </g>
     </g>
     <g id="text_11">
      <!-- 25 -->
      <g transform="translate(90.6575 165.638522727)scale(0.12 -0.12)">
       <use xlink:href="#BitstreamVeraSans-Roman-32"/>
       <use x="63.623046875" xlink:href="#BitstreamVeraSans-Roman-35"/>
      </g>
     </g>
    </g>
    <g id="ytick_5">
     <g id="line2d_24">
      <g>
       <use style="stroke:#000000;stroke-width:0.5;" x="108.0" xlink:href="#md7965d1ba0" y="127.418181818"/>
      </g>
     </g>
     <g id="line2d_25">
      <g>
       <use style="stroke:#000000;stroke-width:0.5;" x="777.6" xlink:href="#md9a1c1a7cd" y="127.418181818"/>
      </g>
     </g>
     <g id="text_12">
      <!-- 30 -->
      <defs>
       <path d="
M40.5781 39.3125
Q47.6562 37.7969 51.625 33
Q55.6094 28.2188 55.6094 21.1875
Q55.6094 10.4062 48.1875 4.48438
Q40.7656 -1.42188 27.0938 -1.42188
Q22.5156 -1.42188 17.6562 -0.515625
Q12.7969 0.390625 7.625 2.20312
L7.625 11.7188
Q11.7188 9.32812 16.5938 8.10938
Q21.4844 6.89062 26.8125 6.89062
Q36.0781 6.89062 40.9375 10.5469
Q45.7969 14.2031 45.7969 21.1875
Q45.7969 27.6406 41.2812 31.2656
Q36.7656 34.9062 28.7188 34.9062
L20.2188 34.9062
L20.2188 43.0156
L29.1094 43.0156
Q36.375 43.0156 40.2344 45.9219
Q44.0938 48.8281 44.0938 54.2969
Q44.0938 59.9062 40.1094 62.9062
Q36.1406 65.9219 28.7188 65.9219
Q24.6562 65.9219 20.0156 65.0312
Q15.375 64.1562 9.8125 62.3125
L9.8125 71.0938
Q15.4375 72.6562 20.3438 73.4375
Q25.25 74.2188 29.5938 74.2188
Q40.8281 74.2188 47.3594 69.1094
Q53.9062 64.0156 53.9062 55.3281
Q53.9062 49.2656 50.4375 45.0938
Q46.9688 40.9219 40.5781 39.3125" id="BitstreamVeraSans-Roman-33"/>
      </defs>
      <g transform="translate(90.441875 130.729431818)scale(0.12 -0.12)">
       <use xlink:href="#BitstreamVeraSans-Roman-33"/>
       <use x="63.623046875" xlink:href="#BitstreamVeraSans-Roman-30"/>
      </g>
     </g>
    </g>
    <g id="ytick_6">
     <g id="line2d_26">
      <g>
       <use style="stroke:#000000;stroke-width:0.5;" x="108.0" xlink:href="#md7965d1ba0" y="92.5090909091"/>
      </g>
     </g>
     <g id="line2d_27">
      <g>
       <use style="stroke:#000000;stroke-width:0.5;" x="777.6" xlink:href="#md9a1c1a7cd" y="92.5090909091"/>
      </g>
     </g>
     <g id="text_13">
      <!-- 35 -->
      <g transform="translate(90.693125 95.8203409091)scale(0.12 -0.12)">
       <use xlink:href="#BitstreamVeraSans-Roman-33"/>
       <use x="63.623046875" xlink:href="#BitstreamVeraSans-Roman-35"/>
      </g>
     </g>
    </g>
    <g id="ytick_7">
     <g id="line2d_28">
      <g>
       <use style="stroke:#000000;stroke-width:0.5;" x="108.0" xlink:href="#md7965d1ba0" y="57.6"/>
      </g>
     </g>
     <g id="line2d_29">
      <g>
       <use style="stroke:#000000;stroke-width:0.5;" x="777.6" xlink:href="#md9a1c1a7cd" y="57.6"/>
      </g>
     </g>
     <g id="text_14">
      <!-- 40 -->
      <g transform="translate(90.11375 60.91125)scale(0.12 -0.12)">
       <use xlink:href="#BitstreamVeraSans-Roman-34"/>
       <use x="63.623046875" xlink:href="#BitstreamVeraSans-Roman-30"/>
      </g>
     </g>
    </g>
    <g id="text_15">
     <!-- Fitness Objective 1 -->
     <defs>
      <path d="
M9.8125 72.9062
L51.7031 72.9062
L51.7031 64.5938
L19.6719 64.5938
L19.6719 43.1094
L48.5781 43.1094
L48.5781 34.8125
L19.6719 34.8125
L19.6719 0
L9.8125 0
z
" id="BitstreamVeraSans-Roman-46"/>
      <path d="
M48.6875 27.2969
Q48.6875 37.2031 44.6094 42.8438
Q40.5312 48.4844 33.4062 48.4844
Q26.2656 48.4844 22.1875 42.8438
Q18.1094 37.2031 18.1094 27.2969
Q18.1094 17.3906 22.1875 11.75
Q26.2656 6.10938 33.4062 6.10938
Q40.5312 6.10938 44.6094 11.75
Q48.6875 17.3906 48.6875 27.2969
M18.1094 46.3906
Q20.9531 51.2656 25.2656 53.625
Q29.5938 56 35.5938 56
Q45.5625 56 51.7812 48.0938
Q58.0156 40.1875 58.0156 27.2969
Q58.0156 14.4062 51.7812 6.48438
Q45.5625 -1.42188 35.5938 -1.42188
Q29.5938 -1.42188 25.2656 0.953125
Q20.9531 3.32812 18.1094 8.20312
L18.1094 0
L9.07812 0
L9.07812 75.9844
L18.1094 75.9844
z
" id="BitstreamVeraSans-Roman-62"/>
      <path d="
M39.4062 66.2188
Q28.6562 66.2188 22.3281 58.2031
Q16.0156 50.2031 16.0156 36.375
Q16.0156 22.6094 22.3281 14.5938
Q28.6562 6.59375 39.4062 6.59375
Q50.1406 6.59375 56.4219 14.5938
Q62.7031 22.6094 62.7031 36.375
Q62.7031 50.2031 56.4219 58.2031
Q50.1406 66.2188 39.4062 66.2188
M39.4062 74.2188
Q54.7344 74.2188 63.9062 63.9375
Q73.0938 53.6562 73.0938 36.375
Q73.0938 19.1406 63.9062 8.85938
Q54.7344 -1.42188 39.4062 -1.42188
Q24.0312 -1.42188 14.8125 8.82812
Q5.60938 19.0938 5.60938 36.375
Q5.60938 53.6562 14.8125 63.9375
Q24.0312 74.2188 39.4062 74.2188" id="BitstreamVeraSans-Roman-4f"/>
      <path d="
M9.42188 54.6875
L18.4062 54.6875
L18.4062 -0.984375
Q18.4062 -11.4219 14.4219 -16.1094
Q10.4531 -20.7969 1.60938 -20.7969
L-1.8125 -20.7969
L-1.8125 -13.1875
L0.59375 -13.1875
Q5.71875 -13.1875 7.5625 -10.8125
Q9.42188 -8.45312 9.42188 -0.984375
z

M9.42188 75.9844
L18.4062 75.9844
L18.4062 64.5938
L9.42188 64.5938
z
" id="BitstreamVeraSans-Roman-6a"/>
      <path d="
M44.2812 53.0781
L44.2812 44.5781
Q40.4844 46.5312 36.375 47.5
Q32.2812 48.4844 27.875 48.4844
Q21.1875 48.4844 17.8438 46.4375
Q14.5 44.3906 14.5 40.2812
Q14.5 37.1562 16.8906 35.375
Q19.2812 33.5938 26.5156 31.9844
L29.5938 31.2969
Q39.1562 29.25 43.1875 25.5156
Q47.2188 21.7812 47.2188 15.0938
Q47.2188 7.46875 41.1875 3.01562
Q35.1562 -1.42188 24.6094 -1.42188
Q20.2188 -1.42188 15.4531 -0.5625
Q10.6875 0.296875 5.42188 2
L5.42188 11.2812
Q10.4062 8.6875 15.2344 7.39062
Q20.0625 6.10938 24.8125 6.10938
Q31.1562 6.10938 34.5625 8.28125
Q37.9844 10.4531 37.9844 14.4062
Q37.9844 18.0625 35.5156 20.0156
Q33.0625 21.9688 24.7031 23.7812
L21.5781 24.5156
Q13.2344 26.2656 9.51562 29.9062
Q5.8125 33.5469 5.8125 39.8906
Q5.8125 47.6094 11.2812 51.7969
Q16.75 56 26.8125 56
Q31.7812 56 36.1719 55.2656
Q40.5781 54.5469 44.2812 53.0781" id="BitstreamVeraSans-Roman-73"/>
      <path id="BitstreamVeraSans-Roman-20"/>
      <path d="
M48.7812 52.5938
L48.7812 44.1875
Q44.9688 46.2969 41.1406 47.3438
Q37.3125 48.3906 33.4062 48.3906
Q24.6562 48.3906 19.8125 42.8438
Q14.9844 37.3125 14.9844 27.2969
Q14.9844 17.2812 19.8125 11.7344
Q24.6562 6.20312 33.4062 6.20312
Q37.3125 6.20312 41.1406 7.25
Q44.9688 8.29688 48.7812 10.4062
L48.7812 2.09375
Q45.0156 0.34375 40.9844 -0.53125
Q36.9688 -1.42188 32.4219 -1.42188
Q20.0625 -1.42188 12.7812 6.34375
Q5.51562 14.1094 5.51562 27.2969
Q5.51562 40.6719 12.8594 48.3281
Q20.2188 56 33.0156 56
Q37.1562 56 41.1094 55.1406
Q45.0625 54.2969 48.7812 52.5938" id="BitstreamVeraSans-Roman-63"/>
      <path d="
M2.98438 54.6875
L12.5 54.6875
L29.5938 8.79688
L46.6875 54.6875
L56.2031 54.6875
L35.6875 0
L23.4844 0
z
" id="BitstreamVeraSans-Roman-76"/>
     </defs>
     <g transform="translate(81.78625 237.407272727)rotate(-90.0)scale(0.16 -0.16)">
      <use xlink:href="#BitstreamVeraSans-Roman-46"/>
      <use x="50.26953125" xlink:href="#BitstreamVeraSans-Roman-69"/>
      <use x="78.052734375" xlink:href="#BitstreamVeraSans-Roman-74"/>
      <use x="117.26171875" xlink:href="#BitstreamVeraSans-Roman-6e"/>
      <use x="180.640625" xlink:href="#BitstreamVeraSans-Roman-65"/>
      <use x="242.1640625" xlink:href="#BitstreamVeraSans-Roman-73"/>
      <use x="294.263671875" xlink:href="#BitstreamVeraSans-Roman-73"/>
      <use x="346.36328125" xlink:href="#BitstreamVeraSans-Roman-20"/>
      <use x="378.150390625" xlink:href="#BitstreamVeraSans-Roman-4f"/>
      <use x="456.861328125" xlink:href="#BitstreamVeraSans-Roman-62"/>
      <use x="520.337890625" xlink:href="#BitstreamVeraSans-Roman-6a"/>
      <use x="548.12109375" xlink:href="#BitstreamVeraSans-Roman-65"/>
      <use x="609.64453125" xlink:href="#BitstreamVeraSans-Roman-63"/>
      <use x="664.625" xlink:href="#BitstreamVeraSans-Roman-74"/>
      <use x="703.833984375" xlink:href="#BitstreamVeraSans-Roman-69"/>
      <use x="731.6171875" xlink:href="#BitstreamVeraSans-Roman-76"/>
      <use x="790.796875" xlink:href="#BitstreamVeraSans-Roman-65"/>
      <use x="852.3203125" xlink:href="#BitstreamVeraSans-Roman-20"/>
      <use x="884.107421875" xlink:href="#BitstreamVeraSans-Roman-31"/>
     </g>
    </g>
   </g>
   <g id="legend_1">
    <g id="patch_7">
     <path d="
M594.013 196.148
L770.4 196.148
L770.4 128.507
L594.013 128.507
z
" style="fill:#ffffff;stroke:#000000;stroke-linejoin:miter;"/>
    </g>
    <g id="line2d_30">
     <path d="
M604.093 140.169
L624.253 140.169" style="fill:none;stroke:#0000ff;stroke-linecap:square;"/>
    </g>
    <g id="line2d_31"/>
    <g id="text_16">
     <!-- Minimum Fitness -->
     <defs>
      <path d="
M52 44.1875
Q55.375 50.25 60.0625 53.125
Q64.75 56 71.0938 56
Q79.6406 56 84.2812 50.0156
Q88.9219 44.0469 88.9219 33.0156
L88.9219 0
L79.8906 0
L79.8906 32.7188
Q79.8906 40.5781 77.0938 44.375
Q74.3125 48.1875 68.6094 48.1875
Q61.625 48.1875 57.5625 43.5469
Q53.5156 38.9219 53.5156 30.9062
L53.5156 0
L44.4844 0
L44.4844 32.7188
Q44.4844 40.625 41.7031 44.4062
Q38.9219 48.1875 33.1094 48.1875
Q26.2188 48.1875 22.1562 43.5312
Q18.1094 38.875 18.1094 30.9062
L18.1094 0
L9.07812 0
L9.07812 54.6875
L18.1094 54.6875
L18.1094 46.1875
Q21.1875 51.2188 25.4844 53.6094
Q29.7812 56 35.6875 56
Q41.6562 56 45.8281 52.9688
Q50 49.9531 52 44.1875" id="BitstreamVeraSans-Roman-6d"/>
      <path d="
M8.5 21.5781
L8.5 54.6875
L17.4844 54.6875
L17.4844 21.9219
Q17.4844 14.1562 20.5 10.2656
Q23.5312 6.39062 29.5938 6.39062
Q36.8594 6.39062 41.0781 11.0312
Q45.3125 15.6719 45.3125 23.6875
L45.3125 54.6875
L54.2969 54.6875
L54.2969 0
L45.3125 0
L45.3125 8.40625
Q42.0469 3.42188 37.7188 1
Q33.4062 -1.42188 27.6875 -1.42188
Q18.2656 -1.42188 13.375 4.4375
Q8.5 10.2969 8.5 21.5781" id="BitstreamVeraSans-Roman-75"/>
      <path d="
M9.8125 72.9062
L24.5156 72.9062
L43.1094 23.2969
L61.8125 72.9062
L76.5156 72.9062
L76.5156 0
L66.8906 0
L66.8906 64.0156
L48.0938 14.0156
L38.1875 14.0156
L19.3906 64.0156
L19.3906 0
L9.8125 0
z
" id="BitstreamVeraSans-Roman-4d"/>
     </defs>
     <g transform="translate(640.093125 145.208522727)scale(0.144 -0.144)">
      <use xlink:href="#BitstreamVeraSans-Roman-4d"/>
      <use x="86.279296875" xlink:href="#BitstreamVeraSans-Roman-69"/>
      <use x="114.0625" xlink:href="#BitstreamVeraSans-Roman-6e"/>
      <use x="177.44140625" xlink:href="#BitstreamVeraSans-Roman-69"/>
      <use x="205.224609375" xlink:href="#BitstreamVeraSans-Roman-6d"/>
      <use x="302.63671875" xlink:href="#BitstreamVeraSans-Roman-75"/>
      <use x="366.015625" xlink:href="#BitstreamVeraSans-Roman-6d"/>
      <use x="463.427734375" xlink:href="#BitstreamVeraSans-Roman-20"/>
      <use x="495.21484375" xlink:href="#BitstreamVeraSans-Roman-46"/>
      <use x="545.484375" xlink:href="#BitstreamVeraSans-Roman-69"/>
      <use x="573.267578125" xlink:href="#BitstreamVeraSans-Roman-74"/>
      <use x="612.4765625" xlink:href="#BitstreamVeraSans-Roman-6e"/>
      <use x="675.85546875" xlink:href="#BitstreamVeraSans-Roman-65"/>
      <use x="737.37890625" xlink:href="#BitstreamVeraSans-Roman-73"/>
      <use x="789.478515625" xlink:href="#BitstreamVeraSans-Roman-73"/>
     </g>
    </g>
    <g id="line2d_32">
     <path d="
M604.093 161.305
L624.253 161.305" style="fill:none;stroke:#ff0000;stroke-linecap:square;"/>
    </g>
    <g id="line2d_33"/>
    <g id="text_17">
     <!-- Maximum Fitness -->
     <defs>
      <path d="
M54.8906 54.6875
L35.1094 28.0781
L55.9062 0
L45.3125 0
L29.3906 21.4844
L13.4844 0
L2.875 0
L24.125 28.6094
L4.6875 54.6875
L15.2812 54.6875
L29.7812 35.2031
L44.2812 54.6875
z
" id="BitstreamVeraSans-Roman-78"/>
     </defs>
     <g transform="translate(640.093125 166.345022727)scale(0.144 -0.144)">
      <use xlink:href="#BitstreamVeraSans-Roman-4d"/>
      <use x="86.279296875" xlink:href="#BitstreamVeraSans-Roman-61"/>
      <use x="147.55859375" xlink:href="#BitstreamVeraSans-Roman-78"/>
      <use x="206.73828125" xlink:href="#BitstreamVeraSans-Roman-69"/>
      <use x="234.521484375" xlink:href="#BitstreamVeraSans-Roman-6d"/>
      <use x="331.93359375" xlink:href="#BitstreamVeraSans-Roman-75"/>
      <use x="395.3125" xlink:href="#BitstreamVeraSans-Roman-6d"/>
      <use x="492.724609375" xlink:href="#BitstreamVeraSans-Roman-20"/>
      <use x="524.51171875" xlink:href="#BitstreamVeraSans-Roman-46"/>
      <use x="574.78125" xlink:href="#BitstreamVeraSans-Roman-69"/>
      <use x="602.564453125" xlink:href="#BitstreamVeraSans-Roman-74"/>
      <use x="641.7734375" xlink:href="#BitstreamVeraSans-Roman-6e"/>
      <use x="705.15234375" xlink:href="#BitstreamVeraSans-Roman-65"/>
      <use x="766.67578125" xlink:href="#BitstreamVeraSans-Roman-73"/>
      <use x="818.775390625" xlink:href="#BitstreamVeraSans-Roman-73"/>
     </g>
    </g>
    <g id="line2d_34">
     <path d="
M604.093 182.442
L624.253 182.442" style="fill:none;stroke:#008000;stroke-linecap:square;"/>
    </g>
    <g id="line2d_35"/>
    <g id="text_18">
     <!-- Average Fitness -->
     <defs>
      <path d="
M45.4062 27.9844
Q45.4062 37.75 41.375 43.1094
Q37.3594 48.4844 30.0781 48.4844
Q22.8594 48.4844 18.8281 43.1094
Q14.7969 37.75 14.7969 27.9844
Q14.7969 18.2656 18.8281 12.8906
Q22.8594 7.51562 30.0781 7.51562
Q37.3594 7.51562 41.375 12.8906
Q45.4062 18.2656 45.4062 27.9844
M54.3906 6.78125
Q54.3906 -7.17188 48.1875 -13.9844
Q42 -20.7969 29.2031 -20.7969
Q24.4688 -20.7969 20.2656 -20.0938
Q16.0625 -19.3906 12.1094 -17.9219
L12.1094 -9.1875
Q16.0625 -11.3281 19.9219 -12.3438
Q23.7812 -13.375 27.7812 -13.375
Q36.625 -13.375 41.0156 -8.76562
Q45.4062 -4.15625 45.4062 5.17188
L45.4062 9.625
Q42.625 4.78125 38.2812 2.39062
Q33.9375 0 27.875 0
Q17.8281 0 11.6719 7.65625
Q5.51562 15.3281 5.51562 27.9844
Q5.51562 40.6719 11.6719 48.3281
Q17.8281 56 27.875 56
Q33.9375 56 38.2812 53.6094
Q42.625 51.2188 45.4062 46.3906
L45.4062 54.6875
L54.3906 54.6875
z
" id="BitstreamVeraSans-Roman-67"/>
      <path d="
M34.1875 63.1875
L20.7969 26.9062
L47.6094 26.9062
z

M28.6094 72.9062
L39.7969 72.9062
L67.5781 0
L57.3281 0
L50.6875 18.7031
L17.8281 18.7031
L11.1875 0
L0.78125 0
z
" id="BitstreamVeraSans-Roman-41"/>
     </defs>
     <g transform="translate(640.093125 187.481522727)scale(0.144 -0.144)">
      <use xlink:href="#BitstreamVeraSans-Roman-41"/>
      <use x="62.533203125" xlink:href="#BitstreamVeraSans-Roman-76"/>
      <use x="121.712890625" xlink:href="#BitstreamVeraSans-Roman-65"/>
      <use x="183.236328125" xlink:href="#BitstreamVeraSans-Roman-72"/>
      <use x="224.349609375" xlink:href="#BitstreamVeraSans-Roman-61"/>
      <use x="285.62890625" xlink:href="#BitstreamVeraSans-Roman-67"/>
      <use x="349.10546875" xlink:href="#BitstreamVeraSans-Roman-65"/>
      <use x="410.62890625" xlink:href="#BitstreamVeraSans-Roman-20"/>
      <use x="442.416015625" xlink:href="#BitstreamVeraSans-Roman-46"/>
      <use x="492.685546875" xlink:href="#BitstreamVeraSans-Roman-69"/>
      <use x="520.46875" xlink:href="#BitstreamVeraSans-Roman-74"/>
      <use x="559.677734375" xlink:href="#BitstreamVeraSans-Roman-6e"/>
      <use x="623.056640625" xlink:href="#BitstreamVeraSans-Roman-65"/>
      <use x="684.580078125" xlink:href="#BitstreamVeraSans-Roman-73"/>
      <use x="736.6796875" xlink:href="#BitstreamVeraSans-Roman-73"/>
     </g>
    </g>
   </g>
  </g>
  <g id="axes_2">
   <g id="patch_8">
    <path d="
M108 518.4
L777.6 518.4
L777.6 308.945
L108 308.945
z
" style="fill:#ffffff;"/>
   </g>
   <g id="line2d_36">
    <path clip-path="url(#pd924c8aeee)" d="
M108 514.211
L114.696 514.211
L121.392 514.211
L128.088 514.211
L134.784 514.211
L141.48 514.211
L148.176 514.211
L154.872 514.211
L161.568 514.211
L168.264 514.211
L174.96 514.211
L181.656 514.211
L188.352 514.211
L195.048 514.211
L201.744 514.211
L208.44 514.211
L215.136 514.211
L221.832 514.211
L228.528 514.211
L235.224 514.211
L241.92 514.211
L248.616 514.211
L255.312 514.211
L262.008 514.211
L268.704 514.211
L275.4 514.211
L282.096 514.211
L288.792 514.211
L295.488 514.211
L302.184 514.211
L308.88 514.211
L315.576 514.211
L322.272 514.211
L328.968 514.211
L335.664 514.211
L342.36 514.211
L349.056 514.211
L355.752 514.211
L362.448 514.211
L369.144 514.211
L375.84 514.211
L382.536 514.211
L389.232 514.211
L395.928 514.211
L402.624 514.211
L409.32 514.211
L416.016 514.211
L422.712 514.211
L429.408 514.211
L436.104 514.211
L442.8 514.211
L449.496 514.211
L456.192 514.211
L462.888 514.211
L469.584 514.211
L476.28 514.211
L482.976 514.211
L489.672 514.211
L496.368 514.211
L503.064 514.211
L509.76 514.211
L516.456 514.211
L523.152 514.211
L529.848 514.211
L536.544 514.211
L543.24 514.211
L549.936 514.211
L556.632 514.211
L563.328 514.211
L570.024 514.211
L576.72 514.211
L583.416 514.211
L590.112 514.211
L596.808 514.211
L603.504 514.211
L610.2 514.211
L616.896 514.211
L623.592 514.211
L630.288 514.211
L636.984 514.211
L643.68 514.211
L650.376 514.211
L657.072 514.211
L663.768 514.211
L670.464 514.211
L677.16 514.211
L683.856 514.211
L690.552 514.211
L697.248 514.211
L703.944 514.211
L710.64 514.211
L717.336 514.211
L724.032 514.211
L730.728 514.211
L737.424 514.211
L744.12 514.211
L750.816 514.211
L757.512 514.211
L764.208 514.211
L770.904 514.211
L777.6 514.211" style="fill:none;stroke:#0000ff;stroke-linecap:square;"/>
   </g>
   <g id="line2d_37">
    <path clip-path="url(#pd924c8aeee)" d="
M108 325.702
L114.696 476.509
L121.392 480.698
L128.088 476.509
L134.784 484.887
L141.48 489.076
L148.176 489.076
L154.872 497.455
L161.568 497.455
L168.264 497.455
L174.96 505.833
L181.656 505.833
L188.352 505.833
L195.048 505.833
L201.744 505.833
L208.44 505.833
L215.136 505.833
L221.832 505.833
L228.528 505.833
L235.224 505.833
L241.92 505.833
L248.616 505.833
L255.312 505.833
L262.008 505.833
L268.704 505.833
L275.4 505.833
L282.096 505.833
L288.792 505.833
L295.488 505.833
L302.184 505.833
L308.88 505.833
L315.576 510.022
L322.272 510.022
L328.968 510.022
L335.664 510.022
L342.36 510.022
L349.056 510.022
L355.752 510.022
L362.448 510.022
L369.144 510.022
L375.84 510.022
L382.536 510.022
L389.232 510.022
L395.928 510.022
L402.624 510.022
L409.32 510.022
L416.016 510.022
L422.712 510.022
L429.408 510.022
L436.104 510.022
L442.8 510.022
L449.496 510.022
L456.192 510.022
L462.888 510.022
L469.584 510.022
L476.28 510.022
L482.976 510.022
L489.672 510.022
L496.368 510.022
L503.064 510.022
L509.76 510.022
L516.456 510.022
L523.152 510.022
L529.848 510.022
L536.544 510.022
L543.24 510.022
L549.936 510.022
L556.632 510.022
L563.328 510.022
L570.024 510.022
L576.72 510.022
L583.416 510.022
L590.112 510.022
L596.808 510.022
L603.504 510.022
L610.2 510.022
L616.896 510.022
L623.592 510.022
L630.288 510.022
L636.984 510.022
L643.68 510.022
L650.376 510.022
L657.072 510.022
L663.768 510.022
L670.464 510.022
L677.16 510.022
L683.856 510.022
L690.552 510.022
L697.248 510.022
L703.944 510.022
L710.64 510.022
L717.336 510.022
L724.032 510.022
L730.728 510.022
L737.424 510.022
L744.12 510.022
L750.816 510.022
L757.512 510.022
L764.208 510.022
L770.904 510.022
L777.6 510.022" style="fill:none;stroke:#ff0000;stroke-linecap:square;"/>
   </g>
   <g id="line2d_38">
    <path clip-path="url(#pd924c8aeee)" d="
M108 426.91
L114.696 495.402
L121.392 495.276
L128.088 499.591
L134.784 499.298
L141.48 501.811
L148.176 506.21
L154.872 506.335
L161.568 508.011
L168.264 512.033
L174.96 511.279
L181.656 512.116
L188.352 511.237
L195.048 512.493
L201.744 511.446
L208.44 514.043
L215.136 514.085
L221.832 513.918
L228.528 514.001
L235.224 513.792
L241.92 513.96
L248.616 513.96
L255.312 514.001
L262.008 514.043
L268.704 514.085
L275.4 513.96
L282.096 513.96
L288.792 513.876
L295.488 513.96
L302.184 514.085
L308.88 513.876
L315.576 513.96
L322.272 514.127
L328.968 514.169
L335.664 514.127
L342.36 514.169
L349.056 514.127
L355.752 514.127
L362.448 514.127
L369.144 514.127
L375.84 514.127
L382.536 514.127
L389.232 514.127
L395.928 514.127
L402.624 514.127
L409.32 514.127
L416.016 514.127
L422.712 514.169
L429.408 514.127
L436.104 514.127
L442.8 514.169
L449.496 514.001
L456.192 514.085
L462.888 514.127
L469.584 514.127
L476.28 514.043
L482.976 514.169
L489.672 514.127
L496.368 514.127
L503.064 514.043
L509.76 514.001
L516.456 514.127
L523.152 514.127
L529.848 514.127
L536.544 514.043
L543.24 514.127
L549.936 513.96
L556.632 514.001
L563.328 514.127
L570.024 514.085
L576.72 513.96
L583.416 514.127
L590.112 513.96
L596.808 514.127
L603.504 514.127
L610.2 514.001
L616.896 514.127
L623.592 514.127
L630.288 514.127
L636.984 514.127
L643.68 514.127
L650.376 513.666
L657.072 514.001
L663.768 514.127
L670.464 514.127
L677.16 514.127
L683.856 514.001
L690.552 514.127
L697.248 514.127
L703.944 514.127
L710.64 514.127
L717.336 514.127
L724.032 514.127
L730.728 514.085
L737.424 514.127
L744.12 514.127
L750.816 514.127
L757.512 514.127
L764.208 514.001
L770.904 514.127
L777.6 514.085" style="fill:none;stroke:#008000;stroke-linecap:square;"/>
   </g>
   <g id="patch_9">
    <path d="
M108 518.4
L777.6 518.4" style="fill:none;stroke:#000000;stroke-linecap:square;stroke-linejoin:miter;"/>
   </g>
   <g id="patch_10">
    <path d="
M108 308.945
L777.6 308.945" style="fill:none;stroke:#000000;stroke-linecap:square;stroke-linejoin:miter;"/>
   </g>
   <g id="patch_11">
    <path d="
M108 518.4
L108 308.945" style="fill:none;stroke:#000000;stroke-linecap:square;stroke-linejoin:miter;"/>
   </g>
   <g id="patch_12">
    <path d="
M777.6 518.4
L777.6 308.945" style="fill:none;stroke:#000000;stroke-linecap:square;stroke-linejoin:miter;"/>
   </g>
   <g id="matplotlib.axis_3">
    <g id="xtick_7">
     <g id="line2d_39">
      <g>
       <use style="stroke:#000000;stroke-width:0.5;" x="108.0" xlink:href="#mc7db9fdffb" y="518.4"/>
      </g>
     </g>
     <g id="line2d_40">
      <g>
       <use style="stroke:#000000;stroke-width:0.5;" x="108.0" xlink:href="#m5a7d422ac3" y="308.945454545"/>
      </g>
     </g>
     <g id="text_19">
      <!-- 0 -->
      <g transform="translate(104.9765625 531.518125)scale(0.12 -0.12)">
       <use xlink:href="#BitstreamVeraSans-Roman-30"/>
      </g>
     </g>
    </g>
    <g id="xtick_8">
     <g id="line2d_41">
      <g>
       <use style="stroke:#000000;stroke-width:0.5;" x="241.92" xlink:href="#mc7db9fdffb" y="518.4"/>
      </g>
     </g>
     <g id="line2d_42">
      <g>
       <use style="stroke:#000000;stroke-width:0.5;" x="241.92" xlink:href="#m5a7d422ac3" y="308.945454545"/>
      </g>
     </g>
     <g id="text_20">
      <!-- 200 -->
      <g transform="translate(231.305625 531.518125)scale(0.12 -0.12)">
       <use xlink:href="#BitstreamVeraSans-Roman-32"/>
       <use x="63.623046875" xlink:href="#BitstreamVeraSans-Roman-30"/>
       <use x="127.24609375" xlink:href="#BitstreamVeraSans-Roman-30"/>
      </g>
     </g>
    </g>
    <g id="xtick_9">
     <g id="line2d_43">
      <g>
       <use style="stroke:#000000;stroke-width:0.5;" x="375.84" xlink:href="#mc7db9fdffb" y="518.4"/>
      </g>
     </g>
     <g id="line2d_44">
      <g>
       <use style="stroke:#000000;stroke-width:0.5;" x="375.84" xlink:href="#m5a7d422ac3" y="308.945454545"/>
      </g>
     </g>
     <g id="text_21">
      <!-- 400 -->
      <g transform="translate(365.079375 531.518125)scale(0.12 -0.12)">
       <use xlink:href="#BitstreamVeraSans-Roman-34"/>
       <use x="63.623046875" xlink:href="#BitstreamVeraSans-Roman-30"/>
       <use x="127.24609375" xlink:href="#BitstreamVeraSans-Roman-30"/>
      </g>
     </g>
    </g>
    <g id="xtick_10">
     <g id="line2d_45">
      <g>
       <use style="stroke:#000000;stroke-width:0.5;" x="509.76" xlink:href="#mc7db9fdffb" y="518.4"/>
      </g>
     </g>
     <g id="line2d_46">
      <g>
       <use style="stroke:#000000;stroke-width:0.5;" x="509.76" xlink:href="#m5a7d422ac3" y="308.945454545"/>
      </g>
     </g>
     <g id="text_22">
      <!-- 600 -->
      <g transform="translate(499.125 531.518125)scale(0.12 -0.12)">
       <use xlink:href="#BitstreamVeraSans-Roman-36"/>
       <use x="63.623046875" xlink:href="#BitstreamVeraSans-Roman-30"/>
       <use x="127.24609375" xlink:href="#BitstreamVeraSans-Roman-30"/>
      </g>
     </g>
    </g>
    <g id="xtick_11">
     <g id="line2d_47">
      <g>
       <use style="stroke:#000000;stroke-width:0.5;" x="643.68" xlink:href="#mc7db9fdffb" y="518.4"/>
      </g>
     </g>
     <g id="line2d_48">
      <g>
       <use style="stroke:#000000;stroke-width:0.5;" x="643.68" xlink:href="#m5a7d422ac3" y="308.945454545"/>
      </g>
     </g>
     <g id="text_23">
      <!-- 800 -->
      <g transform="translate(633.0328125 531.518125)scale(0.12 -0.12)">
       <use xlink:href="#BitstreamVeraSans-Roman-38"/>
       <use x="63.623046875" xlink:href="#BitstreamVeraSans-Roman-30"/>
       <use x="127.24609375" xlink:href="#BitstreamVeraSans-Roman-30"/>
      </g>
     </g>
    </g>
    <g id="xtick_12">
     <g id="line2d_49">
      <g>
       <use style="stroke:#000000;stroke-width:0.5;" x="777.6" xlink:href="#mc7db9fdffb" y="518.4"/>
      </g>
     </g>
     <g id="line2d_50">
      <g>
       <use style="stroke:#000000;stroke-width:0.5;" x="777.6" xlink:href="#m5a7d422ac3" y="308.945454545"/>
      </g>
     </g>
     <g id="text_24">
      <!-- 1000 -->
      <g transform="translate(763.3875 531.518125)scale(0.12 -0.12)">
       <use xlink:href="#BitstreamVeraSans-Roman-31"/>
       <use x="63.623046875" xlink:href="#BitstreamVeraSans-Roman-30"/>
       <use x="127.24609375" xlink:href="#BitstreamVeraSans-Roman-30"/>
       <use x="190.869140625" xlink:href="#BitstreamVeraSans-Roman-30"/>
      </g>
     </g>
    </g>
    <g id="text_25">
     <!-- Generation -->
     <g transform="translate(399.29875 551.17125)scale(0.16 -0.16)">
      <use xlink:href="#BitstreamVeraSans-Roman-47"/>
      <use x="77.490234375" xlink:href="#BitstreamVeraSans-Roman-65"/>
      <use x="139.013671875" xlink:href="#BitstreamVeraSans-Roman-6e"/>
      <use x="202.392578125" xlink:href="#BitstreamVeraSans-Roman-65"/>
      <use x="263.916015625" xlink:href="#BitstreamVeraSans-Roman-72"/>
      <use x="305.029296875" xlink:href="#BitstreamVeraSans-Roman-61"/>
      <use x="366.30859375" xlink:href="#BitstreamVeraSans-Roman-74"/>
      <use x="405.517578125" xlink:href="#BitstreamVeraSans-Roman-69"/>
      <use x="433.30078125" xlink:href="#BitstreamVeraSans-Roman-6f"/>
      <use x="494.482421875" xlink:href="#BitstreamVeraSans-Roman-6e"/>
     </g>
    </g>
   </g>
   <g id="matplotlib.axis_4">
    <g id="ytick_8">
     <g id="line2d_51">
      <g>
       <use style="stroke:#000000;stroke-width:0.5;" x="108.0" xlink:href="#md7965d1ba0" y="518.4"/>
      </g>
     </g>
     <g id="line2d_52">
      <g>
       <use style="stroke:#000000;stroke-width:0.5;" x="777.6" xlink:href="#md9a1c1a7cd" y="518.4"/>
      </g>
     </g>
     <g id="text_26">
      <!-- 0 -->
      <g transform="translate(97.953125 521.71125)scale(0.12 -0.12)">
       <use xlink:href="#BitstreamVeraSans-Roman-30"/>
      </g>
     </g>
    </g>
    <g id="ytick_9">
     <g id="line2d_53">
      <g>
       <use style="stroke:#000000;stroke-width:0.5;" x="108.0" xlink:href="#md7965d1ba0" y="476.509090909"/>
      </g>
     </g>
     <g id="line2d_54">
      <g>
       <use style="stroke:#000000;stroke-width:0.5;" x="777.6" xlink:href="#md9a1c1a7cd" y="476.509090909"/>
      </g>
     </g>
     <g id="text_27">
      <!-- 10 -->
      <g transform="translate(90.845 479.820340909)scale(0.12 -0.12)">
       <use xlink:href="#BitstreamVeraSans-Roman-31"/>
       <use x="63.623046875" xlink:href="#BitstreamVeraSans-Roman-30"/>
      </g>
     </g>
    </g>
    <g id="ytick_10">
     <g id="line2d_55">
      <g>
       <use style="stroke:#000000;stroke-width:0.5;" x="108.0" xlink:href="#md7965d1ba0" y="434.618181818"/>
      </g>
     </g>
     <g id="line2d_56">
      <g>
       <use style="stroke:#000000;stroke-width:0.5;" x="777.6" xlink:href="#md9a1c1a7cd" y="434.618181818"/>
      </g>
     </g>
     <g id="text_28">
      <!-- 20 -->
      <g transform="translate(90.40625 437.929431818)scale(0.12 -0.12)">
       <use xlink:href="#BitstreamVeraSans-Roman-32"/>
       <use x="63.623046875" xlink:href="#BitstreamVeraSans-Roman-30"/>
      </g>
     </g>
    </g>
    <g id="ytick_11">
     <g id="line2d_57">
      <g>
       <use style="stroke:#000000;stroke-width:0.5;" x="108.0" xlink:href="#md7965d1ba0" y="392.727272727"/>
      </g>
     </g>
     <g id="line2d_58">
      <g>
       <use style="stroke:#000000;stroke-width:0.5;" x="777.6" xlink:href="#md9a1c1a7cd" y="392.727272727"/>
      </g>
     </g>
     <g id="text_29">
      <!-- 30 -->
      <g transform="translate(90.441875 396.038522727)scale(0.12 -0.12)">
       <use xlink:href="#BitstreamVeraSans-Roman-33"/>
       <use x="63.623046875" xlink:href="#BitstreamVeraSans-Roman-30"/>
      </g>
     </g>
    </g>
    <g id="ytick_12">
     <g id="line2d_59">
      <g>
       <use style="stroke:#000000;stroke-width:0.5;" x="108.0" xlink:href="#md7965d1ba0" y="350.836363636"/>
      </g>
     </g>
     <g id="line2d_60">
      <g>
       <use style="stroke:#000000;stroke-width:0.5;" x="777.6" xlink:href="#md9a1c1a7cd" y="350.836363636"/>
      </g>
     </g>
     <g id="text_30">
      <!-- 40 -->
      <g transform="translate(90.11375 354.147613636)scale(0.12 -0.12)">
       <use xlink:href="#BitstreamVeraSans-Roman-34"/>
       <use x="63.623046875" xlink:href="#BitstreamVeraSans-Roman-30"/>
      </g>
     </g>
    </g>
    <g id="ytick_13">
     <g id="line2d_61">
      <g>
       <use style="stroke:#000000;stroke-width:0.5;" x="108.0" xlink:href="#md7965d1ba0" y="308.945454545"/>
      </g>
     </g>
     <g id="line2d_62">
      <g>
       <use style="stroke:#000000;stroke-width:0.5;" x="777.6" xlink:href="#md9a1c1a7cd" y="308.945454545"/>
      </g>
     </g>
     <g id="text_31">
      <!-- 50 -->
      <g transform="translate(90.453125 312.256704545)scale(0.12 -0.12)">
       <use xlink:href="#BitstreamVeraSans-Roman-35"/>
       <use x="63.623046875" xlink:href="#BitstreamVeraSans-Roman-30"/>
      </g>
     </g>
    </g>
    <g id="text_32">
     <!-- Fitness Objective 2 -->
     <g transform="translate(81.78625 488.690227273)rotate(-90.0)scale(0.16 -0.16)">
      <use xlink:href="#BitstreamVeraSans-Roman-46"/>
      <use x="50.26953125" xlink:href="#BitstreamVeraSans-Roman-69"/>
      <use x="78.052734375" xlink:href="#BitstreamVeraSans-Roman-74"/>
      <use x="117.26171875" xlink:href="#BitstreamVeraSans-Roman-6e"/>
      <use x="180.640625" xlink:href="#BitstreamVeraSans-Roman-65"/>
      <use x="242.1640625" xlink:href="#BitstreamVeraSans-Roman-73"/>
      <use x="294.263671875" xlink:href="#BitstreamVeraSans-Roman-73"/>
      <use x="346.36328125" xlink:href="#BitstreamVeraSans-Roman-20"/>
      <use x="378.150390625" xlink:href="#BitstreamVeraSans-Roman-4f"/>
      <use x="456.861328125" xlink:href="#BitstreamVeraSans-Roman-62"/>
      <use x="520.337890625" xlink:href="#BitstreamVeraSans-Roman-6a"/>
      <use x="548.12109375" xlink:href="#BitstreamVeraSans-Roman-65"/>
      <use x="609.64453125" xlink:href="#BitstreamVeraSans-Roman-63"/>
      <use x="664.625" xlink:href="#BitstreamVeraSans-Roman-74"/>
      <use x="703.833984375" xlink:href="#BitstreamVeraSans-Roman-69"/>
      <use x="731.6171875" xlink:href="#BitstreamVeraSans-Roman-76"/>
      <use x="790.796875" xlink:href="#BitstreamVeraSans-Roman-65"/>
      <use x="852.3203125" xlink:href="#BitstreamVeraSans-Roman-20"/>
      <use x="884.107421875" xlink:href="#BitstreamVeraSans-Roman-32"/>
     </g>
    </g>
   </g>
   <g id="legend_2">
    <g id="patch_13">
     <path d="
M594.013 447.493
L770.4 447.493
L770.4 379.852
L594.013 379.852
z
" style="fill:#ffffff;stroke:#000000;stroke-linejoin:miter;"/>
    </g>
    <g id="line2d_63">
     <path d="
M604.093 391.514
L624.253 391.514" style="fill:none;stroke:#0000ff;stroke-linecap:square;"/>
    </g>
    <g id="line2d_64"/>
    <g id="text_33">
     <!-- Minimum Fitness -->
     <g transform="translate(640.093125 396.553977273)scale(0.144 -0.144)">
      <use xlink:href="#BitstreamVeraSans-Roman-4d"/>
      <use x="86.279296875" xlink:href="#BitstreamVeraSans-Roman-69"/>
      <use x="114.0625" xlink:href="#BitstreamVeraSans-Roman-6e"/>
      <use x="177.44140625" xlink:href="#BitstreamVeraSans-Roman-69"/>
      <use x="205.224609375" xlink:href="#BitstreamVeraSans-Roman-6d"/>
      <use x="302.63671875" xlink:href="#BitstreamVeraSans-Roman-75"/>
      <use x="366.015625" xlink:href="#BitstreamVeraSans-Roman-6d"/>
      <use x="463.427734375" xlink:href="#BitstreamVeraSans-Roman-20"/>
      <use x="495.21484375" xlink:href="#BitstreamVeraSans-Roman-46"/>
      <use x="545.484375" xlink:href="#BitstreamVeraSans-Roman-69"/>
      <use x="573.267578125" xlink:href="#BitstreamVeraSans-Roman-74"/>
      <use x="612.4765625" xlink:href="#BitstreamVeraSans-Roman-6e"/>
      <use x="675.85546875" xlink:href="#BitstreamVeraSans-Roman-65"/>
      <use x="737.37890625" xlink:href="#BitstreamVeraSans-Roman-73"/>
      <use x="789.478515625" xlink:href="#BitstreamVeraSans-Roman-73"/>
     </g>
    </g>
    <g id="line2d_65">
     <path d="
M604.093 412.65
L624.253 412.65" style="fill:none;stroke:#ff0000;stroke-linecap:square;"/>
    </g>
    <g id="line2d_66"/>
    <g id="text_34">
     <!-- Maximum Fitness -->
     <g transform="translate(640.093125 417.690477273)scale(0.144 -0.144)">
      <use xlink:href="#BitstreamVeraSans-Roman-4d"/>
      <use x="86.279296875" xlink:href="#BitstreamVeraSans-Roman-61"/>
      <use x="147.55859375" xlink:href="#BitstreamVeraSans-Roman-78"/>
      <use x="206.73828125" xlink:href="#BitstreamVeraSans-Roman-69"/>
      <use x="234.521484375" xlink:href="#BitstreamVeraSans-Roman-6d"/>
      <use x="331.93359375" xlink:href="#BitstreamVeraSans-Roman-75"/>
      <use x="395.3125" xlink:href="#BitstreamVeraSans-Roman-6d"/>
      <use x="492.724609375" xlink:href="#BitstreamVeraSans-Roman-20"/>
      <use x="524.51171875" xlink:href="#BitstreamVeraSans-Roman-46"/>
      <use x="574.78125" xlink:href="#BitstreamVeraSans-Roman-69"/>
      <use x="602.564453125" xlink:href="#BitstreamVeraSans-Roman-74"/>
      <use x="641.7734375" xlink:href="#BitstreamVeraSans-Roman-6e"/>
      <use x="705.15234375" xlink:href="#BitstreamVeraSans-Roman-65"/>
      <use x="766.67578125" xlink:href="#BitstreamVeraSans-Roman-73"/>
      <use x="818.775390625" xlink:href="#BitstreamVeraSans-Roman-73"/>
     </g>
    </g>
    <g id="line2d_67">
     <path d="
M604.093 433.787
L624.253 433.787" style="fill:none;stroke:#008000;stroke-linecap:square;"/>
    </g>
    <g id="line2d_68"/>
    <g id="text_35">
     <!-- Average Fitness -->
     <g transform="translate(640.093125 438.826977273)scale(0.144 -0.144)">
      <use xlink:href="#BitstreamVeraSans-Roman-41"/>
      <use x="62.533203125" xlink:href="#BitstreamVeraSans-Roman-76"/>
      <use x="121.712890625" xlink:href="#BitstreamVeraSans-Roman-65"/>
      <use x="183.236328125" xlink:href="#BitstreamVeraSans-Roman-72"/>
      <use x="224.349609375" xlink:href="#BitstreamVeraSans-Roman-61"/>
      <use x="285.62890625" xlink:href="#BitstreamVeraSans-Roman-67"/>
      <use x="349.10546875" xlink:href="#BitstreamVeraSans-Roman-65"/>
      <use x="410.62890625" xlink:href="#BitstreamVeraSans-Roman-20"/>
      <use x="442.416015625" xlink:href="#BitstreamVeraSans-Roman-46"/>
      <use x="492.685546875" xlink:href="#BitstreamVeraSans-Roman-69"/>
      <use x="520.46875" xlink:href="#BitstreamVeraSans-Roman-74"/>
      <use x="559.677734375" xlink:href="#BitstreamVeraSans-Roman-6e"/>
      <use x="623.056640625" xlink:href="#BitstreamVeraSans-Roman-65"/>
      <use x="684.580078125" xlink:href="#BitstreamVeraSans-Roman-73"/>
      <use x="736.6796875" xlink:href="#BitstreamVeraSans-Roman-73"/>
     </g>
    </g>
   </g>
  </g>
 </g>
 <defs>
  <clipPath id="pfc6a5747e2">
   <rect height="209.454545455" width="669.6" x="108.0" y="57.6"/>
  </clipPath>
  <clipPath id="pd924c8aeee">
   <rect height="209.454545455" width="669.6" x="108.0" y="308.945454545"/>
  </clipPath>
 </defs>
</svg>
